<svg version="1.1" id="Layer_1" xmlns="http://www.w3.org/2000/svg" xmlns:xlink="http://www.w3.org/1999/xlink" x="0px" y="0px"
	 width="60px" height="64px" viewBox="0 0 60 64" enable-background="new 0 0 60 64" xml:space="preserve">
<path fill="#5EC9FD" d="M58.967,39.815l-5.755-5.129c-1.666-1.485-1.666-3.915,0.001-5.399l5.754-5.128
	c1.667-1.485,1.222-2.871-0.987-3.082l-7.633-0.723c-2.209-0.209-3.397-2.109-2.638-4.221l4.05-11.275
	c0.759-2.113-0.17-2.883-2.064-1.709l-9.003,5.567c-1.895,1.172-4.341,0.531-5.437-1.424l-3.262-5.819
	c-1.096-1.956-2.907-1.966-4.024-0.023l-3.03,5.269c-1.117,1.942-3.686,2.772-5.707,1.844L13.9,6.113
	c-2.022-0.929-3.578,0.148-3.457,2.393l0.289,5.384c0.121,2.245-1.537,4.556-3.681,5.133l-5.148,1.385
	c-2.145,0.578-2.536,2.266-0.87,3.751l5.755,5.128c1.667,1.484,1.667,3.914,0,5.398l-5.755,5.129
	c-1.667,1.485-1.227,2.919,0.977,3.188l6.982,0.849c2.204,0.27,3.432,2.234,2.729,4.367L8.14,59.078
	c-0.703,2.133,0.299,2.964,2.227,1.85l8.21-4.752c1.928-1.114,4.521-0.501,5.76,1.362l3.41,5.126
	c1.24,1.866,3.101,1.764,4.133-0.227l2.998-5.777c1.033-1.99,3.507-2.805,5.497-1.81l5.781,2.891c1.991,0.993,3.521-0.027,3.4-2.272
	l-0.289-5.386c-0.119-2.245,1.537-4.555,3.683-5.132l5.146-1.386C60.241,42.987,60.634,41.3,58.967,39.815z M33.333,45.986h-6.667
	v-7h6.667V45.986z M33.333,35.319h-6.667V17.987h6.667V35.319z"/>
</svg>
